# xmcd
#
# Track frame offsets: 
#        150
#        13046
#        17962
#        36613
#        54197
#        72869
#        78332
#        98322
#        115050
#        132778
#        152353
#        155967
#        175049
#        194043
#        214943
#        235516
#        248594
#
# Disc length: 3531 seconds
#
# Revision: 0
# Processed by: cddbd v1.5.2PL0 Copyright (c) Steve Scherf et al.
# Submitted via: ExactAudioCopy v0.99pb4
#
DISCID=d60dc911
DTITLE=Little Brother - Separate But Equal
DYEAR=2008
DGENRE=Hip-Hop
TTITLE0=Knock Knock
TTITLE1=Don't Trust Em (skit)
TTITLE2=Cross That Line ft. Big Treal
TTITLE3=Let It Go ft. Mos Def
TTITLE4=Can't Let Her
TTITLE5=The Singing Bums (skit)
TTITLE6=Rollin Out ft. Supastition
TTITLE7=Macaroni
TTITLE8=Boondock Saints ft. L.E.G.A.C.Y. and Chaundon
TTITLE9=Home ft. Joe Scudda
TTITLE10=Horror Movie (skit)
TTITLE11=I Need You ft. Darien Brockington
TTITLE12=Candy ft. Darien Brockington
TTITLE13=Speed Racin ft. Skyzoo and Chaundon
TTITLE14=Deeper ft. Dynas
TTITLE15=Playin to Lose
TTITLE16=Passionflower
EXTD=
EXTT0=
EXTT1=
EXTT2=
EXTT3=
EXTT4=
EXTT5=
EXTT6=
EXTT7=
EXTT8=
EXTT9=
EXTT10=
EXTT11=
EXTT12=
EXTT13=
EXTT14=
EXTT15=
EXTT16=
PLAYORDER=
